<?xml version="1.0" encoding="UTF-8"?><svg id="Layer_1" xmlns="http://www.w3.org/2000/svg" viewBox="0 0 327.8 322"><defs><style>.cls-1{fill:#231f20;}</style></defs><path class="cls-1" d="M91.4,35.1c3.1,1.3,5.5,3.2,7.2,5.7s2.5,5.7,2.5,9.4-.7,5.2-2,7.5c-1.4,2.3-3.3,4-5.9,5.3-.2,0-.3.2-.4.3v.3c0,.1.2.2.4.2,3.1,1.3,5.6,3.2,7.3,5.8,1.8,2.6,2.7,5.5,2.7,8.8s-.9,7.4-2.8,10.2c-1.9,2.7-4.5,4.8-7.8,6.1-3.3,1.4-7.3,2-11.7,2h-27.5c-.1,0-.2,0-.3-.1-.1,0-.2-.1-.2-.2v-62.7c0-.1.1-.2.2-.2h27.4c4.2,0,7.8.6,10.9,1.9h0v-.3ZM65.1,43.4c-.1.1-.2.3-.2.5v14.7c0,.2,0,.4.2.5.1.1.3.2.5.2h13.3c3.1,0,5.6-.7,7.2-2,1.7-1.4,2.5-3.4,2.5-6.1s-.8-4.6-2.5-5.9c-1.7-1.3-4.1-2-7.2-2h-13.4c-.2,0-.3,0-.5.2h0l.1-.1ZM65,86.3c0,.1.1.2.2.2h14.9c3.3,0,5.8-.8,7.7-2.3,1.8-1.5,2.7-3.8,2.7-6.9s-.9-5.1-2.8-6.6c-1.8-1.5-4.4-2.3-7.6-2.3h-14.9c-.1,0-.2.1-.2.2v17.3h0v.4Z"/><path class="cls-1" d="M115.1,33.5c0-.1.1-.2.2-.2h11.6c.1,0,.2.1.2.2v62.7c0,.1-.1.2-.2.2h-11.6c-.1,0-.2-.1-.2-.2v-62.7h0Z"/><path class="cls-1" d="M154.4,33.3c.1,0,.2.1.2.2v52.3c0,.1.1.2.2.2h30.1c.2,0,.4,0,.5.2.1.1.2.3.2.5v9c0,.2,0,.4-.2.5-.1.1-.3.2-.5.2h-42.4c-.1,0-.2-.1-.2-.2v-62.7c0-.1.1-.2.2-.2h11.9Z"/><path class="cls-1" d="M207.1,33.3c.1,0,.2.1.2.2v52.3c0,.1.1.2.2.2h30.1c.2,0,.4,0,.5.2.1.1.2.3.2.5v9c0,.2,0,.4-.2.5-.1.1-.3.2-.5.2h-42.4c-.1,0-.2-.1-.2-.2v-62.7c0-.1.1-.2.2-.2h11.9Z"/><path class="cls-1" d="M258.6,59.2h.3c.1,0,.2-.2.3-.3l14.5-25.2c0-.2.2-.3.3-.4s.3-.1.5-.1h12.8c.1,0,.2.2.2.3s0,.3-.1.4l-22.3,36.5c0,.1-.1.3-.2.4s0,.3,0,.5v24.9c0,.1-.1.2-.2.2h-11.6c-.1,0-.2-.1-.2-.2v-25.4c0-.2,0-.3-.2-.4l-22.3-36.5c0-.1-.1-.3-.1-.4s0-.2.2-.3h12.8c.2,0,.4,0,.5.1.1,0,.2.2.3.4l14.6,25.2c0,.2.2.3.3.3h-.4Z"/><path class="cls-1" d="M91.4,225.1c3.1,1.3,5.5,3.2,7.2,5.7,1.7,2.6,2.5,5.7,2.5,9.4s-.7,5.2-2,7.5c-1.4,2.3-3.3,4-5.9,5.3-.2,0-.3.2-.4.3v.3c0,.1.2.2.4.2,3.1,1.3,5.6,3.2,7.3,5.8s2.7,5.5,2.7,8.8-.9,7.4-2.8,10.2c-1.9,2.7-4.5,4.8-7.8,6.1-3.3,1.3-7.3,2-11.7,2h-27.5c-.1,0-.2,0-.3-.1s-.2-.1-.2-.2v-62.7c0-.1.1-.2.2-.2h27.4c4.2,0,7.8.6,10.9,1.9h0v-.3ZM65.1,233.5c-.1.1-.2.3-.2.5v14.7c0,.2,0,.4.2.5s.3.2.5.2h13.3c3.1,0,5.6-.7,7.2-2s2.5-3.4,2.5-6.1-.8-4.6-2.5-5.9c-1.7-1.3-4.1-2-7.2-2h-13.4c-.2,0-.3,0-.5.2h0l.1-.1ZM65,276.3c0,.1.1.2.2.2h14.9c3.3,0,5.8-.8,7.7-2.3,1.8-1.5,2.7-3.8,2.7-6.9s-.9-5.1-2.8-6.6c-1.8-1.5-4.4-2.3-7.6-2.3h-14.9c-.1,0-.2.1-.2.2v17.3h0v.4Z"/><path class="cls-1" d="M127,223.3c.1,0,.2.1.2.2v52.3c0,.1.1.2.2.2h30.1c.2,0,.4,0,.5.2s.2.3.2.5v9c0,.2,0,.4-.2.5s-.3.2-.5.2h-42.4c-.1,0-.2-.1-.2-.2v-62.7c0-.1.1-.2.2-.2h11.9Z"/><path class="cls-1" d="M176.7,285.2c-3.8-1.9-6.7-4.7-8.7-8.3-2-3.6-3-8-3-13.2v-40.1c0-.1.1-.2.2-.2h11.7c.1,0,.2.1.2.2v39.8c0,4.7,1.1,8.2,3.4,10.6s5.5,3.7,9.7,3.7,7.5-1.2,9.7-3.7c2.3-2.4,3.4-6,3.4-10.6v-39.8c0-.1.1-.2.2-.2h11.7c.1,0,.2.1.2.2v40.1c0,5.2-1,9.6-3,13.2s-4.9,6.4-8.7,8.3c-3.8,1.9-8.4,2.8-13.8,2.8s-10-.9-13.8-2.8h.6Z"/><path class="cls-1" d="M242.7,275.6c0,.2,0,.3.2.5s.3.2.5.2h32c.2,0,.4,0,.5.2s.2.3.2.5v9c0,.2,0,.3-.2.5s-.3.2-.5.2h-44.8c-.1,0-.2-.1-.2-.2v-62.7c0-.1.1-.2.2-.2h44c.2,0,.4,0,.5.2.1.1.2.3.2.5v9c0,.2,0,.4-.2.5-.1.1-.3.2-.5.2h-31.3c-.2,0-.4,0-.5.2s-.2.3-.2.5v41.3h0l.1-.4Z"/><path class="cls-1" d="M327.8,258.5H0V59.3h327.8v199.3-.1ZM9.3,249.3h309.2V68.5H9.3v180.8Z"/></svg>