<?xml version="1.0" encoding="UTF-8"?>
<svg id="Layer_1" xmlns="http://www.w3.org/2000/svg" version="1.1" viewBox="0 0 1080 322">
  <!-- Generator: Adobe Illustrator 30.2.1, SVG Export Plug-In . SVG Version: 2.1.1 Build 1)  -->
  <defs>
    <style>
      .st0 {
        fill: var(--primary-light);
      }

      .st1 {
        fill-rule: evenodd;
      }
    </style>
  </defs>
  <g>
    <g>
      <path class="st0" d="M327.6,35.1c3.1,1.3,5.5,3.2,7.2,5.7,1.7,2.5,2.5,5.7,2.5,9.4s-.7,5.2-2,7.5c-1.4,2.3-3.3,4-5.9,5.3-.2,0-.3.2-.4.3,0,0,0,.2,0,.3,0,.1.2.2.4.2,3.1,1.3,5.6,3.2,7.3,5.8,1.8,2.6,2.7,5.5,2.7,8.8s-.9,7.4-2.8,10.2c-1.9,2.7-4.5,4.8-7.8,6.1-3.3,1.4-7.3,2-11.7,2h-27.5c-.1,0-.2,0-.3-.1-.1,0-.2-.1-.2-.2,0-.1,0-.2,0-.3v-62.1c0-.1,0-.2,0-.3,0-.1.1-.2.2-.2.1,0,.2,0,.3,0h27.1c4.2,0,7.8.6,10.9,1.9h0ZM301.3,43.4c-.1.1-.2.3-.2.5v14.7c0,.2,0,.4.2.5.1.1.3.2.5.2h13.3c3.1,0,5.6-.7,7.2-2,1.7-1.4,2.5-3.4,2.5-6.1s-.8-4.6-2.5-5.9c-1.7-1.3-4.1-2-7.2-2h-13.4c-.2,0-.3,0-.5.2h0ZM301.2,86.3c0,.1.1.2.2.2.1,0,.2,0,.3,0h14.6c3.3,0,5.8-.8,7.7-2.3,1.8-1.5,2.7-3.8,2.7-6.9s-.9-5.1-2.8-6.6c-1.8-1.5-4.4-2.3-7.6-2.3h-14.6c-.1,0-.2,0-.3,0-.1,0-.2.1-.2.2s0,.2,0,.3v16.7c0,.1,0,.2,0,.3h0Z"/>
      <path class="st0" d="M351.3,33.5c0-.1.1-.2.2-.2.1,0,.2,0,.3,0h11c.1,0,.2,0,.3,0,.1,0,.2.1.2.2s0,.2,0,.3v62.1c0,.1,0,.2,0,.3s-.1.2-.2.2c-.1,0-.2,0-.3,0h-11c-.1,0-.2,0-.3,0-.1,0-.2-.1-.2-.2,0-.1,0-.2,0-.3v-62.1c0-.1,0-.2,0-.3h0Z"/>
      <path class="st0" d="M390.6,33.3c.1,0,.2.1.2.2s0,.2,0,.3v51.7c0,.1,0,.2,0,.3s.1.2.2.2c.1,0,.2,0,.3,0h29.8c.2,0,.4,0,.5.2.1.1.2.3.2.5v9c0,.2,0,.4-.2.5-.1.1-.3.2-.5.2h-42.1c-.1,0-.2,0-.3,0-.1,0-.2-.1-.2-.2,0-.1,0-.2,0-.3v-62.1c0-.1,0-.2,0-.3,0-.1.1-.2.2-.2.1,0,.2,0,.3,0h11c.1,0,.2,0,.3,0h0Z"/>
      <path class="st0" d="M443.3,33.3c.1,0,.2.1.2.2s0,.2,0,.3v51.7c0,.1,0,.2,0,.3s.1.2.2.2c.1,0,.2,0,.3,0h29.8c.2,0,.4,0,.5.2.1.1.2.3.2.5v9c0,.2,0,.4-.2.5-.1.1-.3.2-.5.2h-42.1c-.1,0-.2,0-.3,0-.1,0-.2-.1-.2-.2,0-.1,0-.2,0-.3v-62.1c0-.1,0-.2,0-.3,0-.1.1-.2.2-.2.1,0,.2,0,.3,0h11c.1,0,.2,0,.3,0h0Z"/>
      <path class="st0" d="M494.8,59.2c.1,0,.2,0,.3,0,.1,0,.2-.2.3-.3l14.5-25.2c0-.2.2-.3.3-.4s.3-.1.5-.1h12.4c.2,0,.3,0,.4,0,.1,0,.2.2.2.3s0,.3-.1.4l-22.3,36.5c0,.1-.1.3-.2.4s0,.3,0,.5v24.6c0,.1,0,.2,0,.3,0,.1-.1.2-.2.2-.1,0-.2,0-.3,0h-11c-.1,0-.2,0-.3,0-.1,0-.2-.1-.2-.2s0-.2,0-.3v-24.6c0-.1,0-.3,0-.5s0-.3-.2-.4l-22.3-36.5c0-.1-.1-.3-.1-.4,0-.1,0-.2.2-.3.1,0,.2,0,.4,0h12.4c.2,0,.4,0,.5.1.1,0,.2.2.3.4l14.6,25.2c0,.2.2.3.3.3h0Z"/>
    </g>
    <g>
      <path class="st0" d="M327.6,225.1c3.1,1.3,5.5,3.2,7.2,5.7,1.7,2.6,2.5,5.7,2.5,9.4s-.7,5.2-2,7.5c-1.4,2.3-3.3,4-5.9,5.3-.2,0-.3.2-.4.3,0,0,0,.2,0,.3,0,.1.2.2.4.2,3.1,1.3,5.6,3.2,7.3,5.8s2.7,5.5,2.7,8.8-.9,7.4-2.8,10.2c-1.9,2.7-4.5,4.8-7.8,6.1-3.3,1.3-7.3,2-11.7,2h-27.5c-.1,0-.2,0-.3-.1s-.2-.1-.2-.2c0-.1,0-.2,0-.3v-62.1c0-.1,0-.2,0-.3,0-.1.1-.2.2-.2s.2,0,.3,0h27.1c4.2,0,7.8.6,10.9,1.9h0ZM301.3,233.5c-.1.1-.2.3-.2.5v14.7c0,.2,0,.4.2.5s.3.2.5.2h13.3c3.1,0,5.6-.7,7.2-2s2.5-3.4,2.5-6.1-.8-4.6-2.5-5.9c-1.7-1.3-4.1-2-7.2-2h-13.4c-.2,0-.3,0-.5.2h0ZM301.2,276.3c0,.1.1.2.2.2.1,0,.2,0,.3,0h14.6c3.3,0,5.8-.8,7.7-2.3,1.8-1.5,2.7-3.8,2.7-6.9s-.9-5.1-2.8-6.6c-1.8-1.5-4.4-2.3-7.6-2.3h-14.6c-.1,0-.2,0-.3,0-.1,0-.2.1-.2.2,0,.1,0,.2,0,.3v16.7c0,.1,0,.2,0,.3h0Z"/>
      <path class="st0" d="M363.2,223.3c.1,0,.2.1.2.2,0,.1,0,.2,0,.3v51.7c0,.1,0,.2,0,.3,0,.1.1.2.2.2s.2,0,.3,0h29.8c.2,0,.4,0,.5.2s.2.3.2.5v9c0,.2,0,.4-.2.5s-.3.2-.5.2h-42.1c-.1,0-.2,0-.3,0s-.2-.1-.2-.2c0-.1,0-.2,0-.3v-62.1c0-.1,0-.2,0-.3,0-.1.1-.2.2-.2s.2,0,.3,0h11c.1,0,.2,0,.3,0h0Z"/>
      <path class="st0" d="M412.9,285.2c-3.8-1.9-6.7-4.7-8.7-8.3-2-3.6-3-8-3-13.2v-39.8c0-.1,0-.2,0-.3,0-.1.1-.2.2-.2.1,0,.2,0,.3,0h11.1c.1,0,.2,0,.3,0s.2.1.2.2c0,.1,0,.2,0,.3v39.5c0,4.7,1.1,8.2,3.4,10.6,2.3,2.4,5.5,3.7,9.7,3.7s7.5-1.2,9.7-3.7c2.3-2.4,3.4-6,3.4-10.6v-39.5c0-.1,0-.2,0-.3,0-.1.1-.2.2-.2s.2,0,.3,0h11.1c.1,0,.2,0,.3,0,.1,0,.2.1.2.2,0,.1,0,.2,0,.3v39.8c0,5.2-1,9.6-3,13.2-2,3.6-4.9,6.4-8.7,8.3-3.8,1.9-8.4,2.8-13.8,2.8s-10-.9-13.8-2.8h0Z"/>
      <path class="st0" d="M478.9,275.6c0,.2,0,.3.2.5s.3.2.5.2h32c.2,0,.4,0,.5.2s.2.3.2.5v9c0,.2,0,.3-.2.5s-.3.2-.5.2h-44.5c-.1,0-.2,0-.3,0s-.2-.1-.2-.2c0-.1,0-.2,0-.3v-62.1c0-.1,0-.2,0-.3,0-.1.1-.2.2-.2s.2,0,.3,0h43.7c.2,0,.4,0,.5.2.1.1.2.3.2.5v9c0,.2,0,.4-.2.5-.1.1-.3.2-.5.2h-31.3c-.2,0-.4,0-.5.2s-.2.3-.2.5v41.3h0Z"/>
    </g>
    <path class="st0" d="M564,258.5H236.2V59.3h327.8v199.3ZM245.5,249.3h309.2V68.5H245.5v180.8Z"/>
  </g>
  <path class="st1" d="M840,61.7h-194.5v194.5h194.5V61.7h0ZM810.8,88.3h-136.1v21.4h36.6v119.8h21.4v-119.8h20v119.8h21.4v-119.8h36.6v-21.4h0Z"/>
</svg>